<?xml version="1.0" encoding="utf-8"?>
<!-- Generator: Adobe Illustrator 16.0.0, SVG Export Plug-In . SVG Version: 6.00 Build 0)  -->
<!DOCTYPE svg PUBLIC "-//W3C//DTD SVG 1.1//EN" "http://www.w3.org/Graphics/SVG/1.1/DTD/svg11.dtd">
<svg version="1.1" id="Layer_1" xmlns="http://www.w3.org/2000/svg" xmlns:xlink="http://www.w3.org/1999/xlink" x="0px" y="0px"
	 width="721px" height="231px" viewBox="0 0 721 231" enable-background="new 0 0 721 231" xml:space="preserve">
<polygon fill="#AAABAB" points="567.269,157.967 577.701,157.967 598.887,157.967 596.799,166.563 575.614,166.563 572.807,178.043 
	592.146,178.043 589.979,186.637 570.801,186.637 567.83,198.684 589.417,198.684 587.411,207.275 565.825,207.275 555.394,207.275 
	"/>
<polygon fill="#AAABAB" points="647.3,166.563 631.731,166.563 621.863,207.275 611.511,207.275 621.3,166.563 605.733,166.563 
	607.819,157.967 649.307,157.967 "/>
<polygon fill="#AAABAB" points="682.314,186.637 662.815,186.637 657.84,207.275 647.408,207.275 659.284,157.967 669.716,157.967 
	664.901,178.043 684.401,178.043 689.215,157.967 699.646,157.967 687.771,207.275 677.34,207.275 "/>
<path fill="#FFFFFF" d="M294.789,64.458c5.122,0,9.544,0.917,13.263,2.719c3.735,1.82,6.818,4.271,9.29,7.354
	c2.438,3.098,4.253,6.719,5.426,10.869c1.165,4.161,1.749,8.635,1.749,13.421c0,7.358-1.348,14.307-4.068,20.859
	c-2.723,6.559-6.413,12.252-11.11,17.106c-4.692,4.851-10.232,8.667-16.622,11.491c-6.378,2.824-13.315,4.238-20.761,4.238
	c-0.963,0-2.657-0.026-5.049-0.078c-2.391-0.047-5.139-0.295-8.218-0.711c-3.097-0.432-6.373-1.07-9.832-1.929
	c-3.457-0.84-6.74-2.019-9.833-3.514L266.67,30.109l24.764-3.839l-9.899,41.227c2.12-0.955,4.255-1.694,6.386-2.233
	C290.054,64.735,292.344,64.458,294.789,64.458 M274.018,132.87c3.729,0,7.243-0.917,10.544-2.718
	c3.311-1.803,6.168-4.238,8.562-7.271c2.393-3.05,4.288-6.479,5.669-10.316c1.382-3.832,2.079-7.831,2.079-11.991
	c0-5.116-0.854-9.1-2.557-11.985c-1.703-2.87-4.854-4.316-9.429-4.316c-1.501,0-3.431,0.286-5.827,0.798
	c-2.405,0.543-4.555,1.669-6.482,3.365l-10.541,43.781c0.634,0.114,1.197,0.221,1.677,0.319c0.47,0.108,0.988,0.188,1.505,0.237
	c0.547,0.063,1.173,0.094,1.928,0.094C271.902,132.868,272.846,132.87,274.018,132.87"/>
<path fill="#FFFFFF" d="M350.197,150.294h-23.652l19.977-84.053h23.813L350.197,150.294z M361.707,56
	c-3.301,0-6.293-0.982-8.951-2.951c-2.676-1.958-4.002-4.971-4.002-9.032c0-2.233,0.453-4.329,1.354-6.306
	c0.911-1.973,2.106-3.673,3.603-5.117c1.494-1.433,3.224-2.577,5.19-3.438c1.977-0.849,4.082-1.276,6.321-1.276
	c3.301,0,6.275,0.983,8.942,2.953c2.655,1.979,3.991,4.992,3.991,9.031c0,2.241-0.451,4.345-1.358,6.319
	c-0.903,1.973-2.097,3.672-3.592,5.116c-1.482,1.435-3.229,2.576-5.189,3.43C366.037,55.59,363.94,56,361.707,56"/>
<path fill="#FFFFFF" d="M391.063,45.299l24.775-3.837l-6.084,24.775h26.531l-4.791,19.492h-26.373l-7.023,29.403
	c-0.646,2.447-1.014,4.736-1.116,6.863c-0.115,2.139,0.152,3.973,0.795,5.519c0.636,1.549,1.776,2.743,3.436,3.584
	c1.649,0.86,4.012,1.291,7.108,1.291c2.552,0,5.039-0.242,7.44-0.724c2.391-0.472,4.812-1.129,7.262-1.994l1.766,18.226
	c-3.192,1.17-6.653,2.18-10.387,3.028c-3.734,0.86-8.156,1.271-13.269,1.271c-7.35,0-13.046-1.09-17.104-3.262
	c-4.056-2.185-6.918-5.177-8.633-8.961c-1.691-3.769-2.447-8.117-2.235-13.017c0.218-4.908,0.958-10.071,2.235-15.503
	L391.063,45.299z"/>
<path fill="#FFFFFF" d="M435.247,116.73c0-7.24,1.172-14.065,3.513-20.458c2.338-6.398,5.706-11.992,10.074-16.79
	c4.355-4.777,9.66-8.562,15.907-11.341c6.213-2.762,13.175-4.155,20.843-4.155c4.802,0,9.092,0.454,12.864,1.363
	c3.791,0.917,7.215,2.104,10.313,3.591l-8.153,18.548c-2.134-0.863-4.346-1.625-6.634-2.316c-2.286-0.704-5.08-1.044-8.387-1.044
	c-7.896,0-14.137,2.722-18.781,8.145c-4.63,5.43-6.96,12.737-6.96,21.902c0,5.435,1.176,9.825,3.526,13.185
	c2.34,3.361,6.664,5.033,12.94,5.033c3.097,0,6.087-0.324,8.948-0.953c2.887-0.641,5.435-1.443,7.68-2.396l1.767,19.013
	c-2.99,1.16-6.291,2.209-9.908,3.127c-3.629,0.887-7.943,1.349-12.949,1.349c-6.606,0-12.202-0.97-16.776-2.871
	c-4.579-1.935-8.361-4.501-11.343-7.752c-2.996-3.261-5.146-7.069-6.477-11.437C435.927,126.104,435.247,121.514,435.247,116.73"/>
<path fill="#FFFFFF" d="M540.322,152.521c-5.646,0-10.553-0.859-14.711-2.563c-4.148-1.698-7.581-4.093-10.298-7.188
	c-2.727-3.082-4.762-6.734-6.155-10.942c-1.396-4.209-2.065-8.868-2.065-13.97c0-6.402,1.026-12.806,3.104-19.191
	c2.069-6.396,5.14-12.143,9.197-17.252c4.027-5.117,9.003-9.301,14.852-12.562c5.847-3.24,12.571-4.869,20.125-4.869
	c5.541,0,10.42,0.862,14.638,2.564c4.196,1.699,7.653,4.109,10.389,7.191c2.704,3.098,4.76,6.735,6.14,10.949
	c1.391,4.199,2.077,8.87,2.077,13.979c0,6.382-1.015,12.785-3.025,19.188c-2.014,6.371-5.005,12.133-8.951,17.254
	c-3.938,5.109-8.86,9.291-14.776,12.539C554.951,150.896,548.098,152.521,540.322,152.521 M552.141,84.128
	c-3.506,0-6.604,1.019-9.26,3.029c-2.665,2.034-4.9,4.594-6.704,7.675c-1.82,3.098-3.172,6.478-4.085,10.149
	c-0.906,3.681-1.353,7.161-1.353,10.465c0,5.332,0.861,9.49,2.551,12.478c1.714,2.973,4.799,4.471,9.271,4.471
	c3.521,0,6.604-1.014,9.272-3.041c2.646-2.021,4.889-4.578,6.703-7.672c1.812-3.08,3.176-6.471,4.09-10.146
	c0.894-3.669,1.349-7.167,1.349-10.466c0-5.32-0.854-9.484-2.563-12.469C559.711,85.625,556.614,84.128,552.141,84.128"/>
<path fill="#FFFFFF" d="M613.388,150.294h-23.669l19.975-84.053h23.823L613.388,150.294z M624.88,56
	c-3.299,0-6.29-0.982-8.939-2.951c-2.667-1.958-4.003-4.971-4.003-9.032c0-2.233,0.459-4.329,1.359-6.306
	c0.901-1.973,2.104-3.673,3.598-5.117c1.487-1.433,3.233-2.577,5.195-3.438c1.966-0.849,4.069-1.276,6.301-1.276
	c3.311,0,6.298,0.983,8.957,2.953c2.661,1.979,4.002,4.992,4.002,9.031c0,2.241-0.476,4.345-1.368,6.319
	c-0.896,1.973-2.098,3.672-3.584,5.116c-1.499,1.435-3.228,2.576-5.189,3.43C629.224,55.59,627.127,56,624.88,56"/>
<path fill="#FFFFFF" d="M650.564,70.063c1.794-0.524,3.801-1.156,5.979-1.842c2.19-0.687,4.636-1.326,7.366-1.902
	c2.702-0.594,5.75-1.076,9.104-1.449c3.351-0.381,7.173-0.567,11.413-0.567c12.478,0,21.077,3.634,25.821,10.877
	c4.745,7.244,5.565,17.155,2.488,29.723l-10.882,45.384h-23.81l10.546-44.432c0.644-2.771,1.146-5.455,1.522-8.074
	c0.376-2.598,0.354-4.889-0.087-6.868c-0.42-1.958-1.41-3.56-2.946-4.801c-1.562-1.222-3.919-1.836-7.116-1.836
	c-3.083,0-6.223,0.332-9.425,0.972l-15.503,65.033H631.22L650.564,70.063z"/>
<g>
	<g>
		<g>
			<defs>
				<rect id="SVGID_1_" x="-61" y="-34.952" width="387.376" height="303.45"/>
			</defs>
			<clipPath id="SVGID_2_">
				<use xlink:href="#SVGID_1_"  overflow="visible"/>
			</clipPath>
			<g clip-path="url(#SVGID_2_)">
				<g>
					<g>
						<defs>
							<rect id="SVGID_3_" x="-102.858" y="-34.952" width="429.234" height="303.45"/>
						</defs>
						<clipPath id="SVGID_4_">
							<use xlink:href="#SVGID_3_"  overflow="visible"/>
						</clipPath>
						<g clip-path="url(#SVGID_4_)">
							<g>
								<path fill="#A9ACAA" d="M16.883,167.254c-0.443,0.014-0.487-0.384-0.625-0.648c-3.417-6.557-6.122-13.393-8.141-20.506
									c-1.201-4.231-2.134-8.521-2.813-12.857c-0.389-2.486-0.684-4.988-0.86-7.508c-0.236-3.371-0.484-6.742-0.384-10.12
									c0.099-3.331,0.271-6.659,0.613-9.982c0.533-5.19,1.469-10.3,2.754-15.346c2.498-9.802,6.312-19.066,11.385-27.825
									c3.358-5.798,7.194-11.246,11.59-16.292c3.48-3.996,7.242-7.716,11.27-11.172c4.43-3.802,9.133-7.219,14.111-10.255
									c5.749-3.506,11.777-6.452,18.074-8.846c6.212-2.362,12.598-4.105,19.13-5.295c2.675-0.487,5.379-0.802,8.085-1.112
									c5.685-0.65,11.383-0.541,17.075-0.378c2.832,0.081,5.659,0.469,8.479,0.855c3.952,0.542,7.856,1.291,11.719,2.266
									c6.405,1.617,12.607,3.804,18.625,6.542c7.111,3.236,13.752,7.246,20.004,11.91c5.107,3.809,9.762,8.13,14.083,12.803
									c3.902,4.221,7.46,8.724,10.638,13.517c4.903,7.395,8.891,15.249,11.863,23.618c2.375,6.685,4.146,13.515,5.143,20.542
									c0.474,3.338,0.794,6.686,1.006,10.055c0.169,2.688,0.186,5.372,0.131,8.053c-0.076,3.734-0.39,7.455-0.865,11.168
									c-0.647,5.049-1.647,10.018-2.979,14.924c-1.495,5.507-3.44,10.851-5.768,16.063c-3.54,7.928-8.105,15.229-13.42,22.069
									c-3.454,4.444-7.256,8.592-11.385,12.413c-6.571,6.08-13.795,11.269-21.654,15.576c-8.583,4.707-17.64,8.162-27.149,10.433
									c-3.951,0.942-7.96,1.577-11.993,2.106c-6.081,0.797-12.18,0.84-18.279,0.611c-4.013-0.15-8.005-0.662-11.978-1.335
									c-6.108-1.034-12.088-2.54-17.937-4.567c-10.504-3.642-20.211-8.803-29.114-15.455c-5-3.734-9.664-7.866-13.923-12.434
									c-4.06-4.353-7.81-8.963-11.066-13.953c-1.779-2.726-3.501-5.49-5.069-8.348c-0.173-0.314-0.402-0.626-0.322-1.025
									c0.445-0.01,0.747,0.306,1.091,0.506c2.745,1.6,5.483,3.209,8.22,4.822c7.368,4.346,14.735,8.693,22.1,13.045
									c16.484,9.738,32.967,19.479,49.448,29.223c4.348,2.57,8.704,5.128,13.023,7.744c0.766,0.466,1.399,0.477,2.116,0.06
									c0.422-0.246,0.842-0.497,1.263-0.745c18.235-10.779,36.471-21.559,54.704-32.341c6.452-3.815,12.894-7.647,19.348-11.458
									c3.542-2.091,7.103-4.15,10.651-6.23c2.354-1.381,4.706-2.768,7.053-4.158c0.967-0.573,0.962-0.584,0.367-1.588
									c-0.063-0.105-0.129-0.209-0.192-0.313c-6.386-10.659-12.869-21.258-19.205-31.946c-4.611-7.779-9.321-15.502-13.991-23.247
									c-9.697-16.083-19.393-32.167-29.102-48.242c-1.199-1.985-2.313-4.024-3.659-5.919c0.096-0.422,0.152-0.859,0.297-1.264
									c0.167-0.463-0.011-0.594-0.423-0.764c-0.521-0.215-1.131,0.017-1.592-0.379c0.442-0.479-0.107-0.736-0.277-1.021
									c-3.865-6.461-7.75-12.909-11.636-19.357c-4.822-8.002-9.647-16.003-14.557-24.146c-0.355,0.57-0.635,1.001-0.898,1.443
									c-2.376,3.982-4.735,7.974-7.125,11.946c-6.67,11.083-13.345,22.162-20.039,33.23c-0.86,1.422-1.613,2.916-2.653,4.227
									c-0.463,0.099-0.867-0.146-1.295-0.236c-1.115-0.234-1.125-0.254-1.38,0.791c-0.583,2.382-1.152,4.767-1.722,7.152
									c-0.039,0.163-0.08,0.307-0.245,0.379c-0.266,0.013-0.288,0.264-0.384,0.422c-4.425,7.308-8.85,14.616-13.26,21.933
									c-6.405,10.628-12.793,21.266-19.197,31.895c-5.396,8.957-10.809,17.902-16.205,26.858
									c-3.317,5.505-6.616,11.021-9.931,16.527C17.449,166.697,17.351,167.141,16.883,167.254z"/>
								<path fill="#292B2C" d="M16.883,167.254c0.468-0.113,0.566-0.557,0.768-0.893c3.314-5.506,6.614-11.021,9.931-16.526
									c5.396-8.956,10.809-17.901,16.205-26.858c6.403-10.628,12.792-21.267,19.197-31.895c4.41-7.317,8.835-14.625,13.26-21.933
									c0.096-0.158,0.118-0.409,0.384-0.422c-0.265,1.106-0.518,2.215-0.801,3.317c-0.141,0.549-0.003,0.785,0.592,0.909
									c1.709,0.356,3.405,0.775,5.099,1.199c1.615,0.404,3.251,0.759,4.762,1.484c2.785,1.336,4.002,3.975,3.276,6.987
									c-1.713,7.112-3.587,14.183-5.271,21.302c-1.206,5.098-2.55,10.162-3.827,15.243c-1.287,5.12-2.557,10.245-3.857,15.361
									c-0.61,2.4-2.328,3.587-4.785,3.381c-1.021-0.086-2-0.371-2.987-0.614c-1.896-0.468-3.791-0.938-5.668-1.476
									c-0.578-0.164-0.836-0.008-1.011,0.498c-0.066,0.19-0.159,0.373-0.24,0.562c-1.585,3.656-3.166,7.315-4.757,10.97
									c-0.603,1.387-0.613,1.379,0.899,1.758c7.063,1.774,14.125,3.551,21.188,5.326c1.401,0.353,1.271,0.187,0.92,1.604
									c-1.438,5.803-2.896,11.602-4.346,17.4c-0.232,0.93-0.229,0.935,0.742,1.176c2.051,0.512,4.104,1.019,6.155,1.529
									c1.525,0.379,3.049,0.76,4.613,1.149c0.118-0.415,0.213-0.722,0.291-1.031c1.463-5.837,2.922-11.674,4.387-17.511
									c0.206-0.818,0.22-0.822,1.049-0.607c2.561,0.66,5.121,1.326,7.68,1.993c0.954,0.248,0.959,0.255,0.716,1.232
									c-0.862,3.474-1.727,6.946-2.595,10.419c-0.649,2.595-1.307,5.188-1.977,7.843c0.337,0.106,0.6,0.207,0.871,0.274
									c3.271,0.824,6.544,1.646,9.817,2.462c1.029,0.256,1.032,0.247,1.292-0.761c0.02-0.078,0.027-0.16,0.047-0.238
									c1.454-5.805,2.907-11.608,4.365-17.412c0.231-0.921,0.244-0.934,0.999-0.793c2.923,0.541,5.86,0.959,8.821,1.247
									c4.52,0.438,9.019,0.485,13.498-0.362c7.138-1.354,12.623-5.07,16.177-11.456c2.422-4.353,3.982-9.011,4.412-13.991
									c0.505-5.858-1.278-10.923-5.494-15.078c-1.841-1.815-3.948-3.269-6.192-4.533c-0.294-0.166-0.65-0.268-0.899-0.67
									c0.57-0.172,1.069-0.318,1.566-0.474c5.784-1.806,9.767-5.523,11.909-11.203c0.635-1.683,1.06-3.419,1.361-5.188
									c1.289-7.551-1.002-13.807-6.799-18.799c-1.735-1.494-3.617-2.772-5.603-3.903c-3.333-1.897-6.853-3.382-10.468-4.638
									c-0.629-0.218-0.793-0.442-0.614-1.124c0.927-3.543,1.787-7.104,2.678-10.657c0.511-2.037,1.037-4.07,1.556-6.105
									c1.346,1.895,2.46,3.935,3.659,5.919c9.709,16.075,19.405,32.159,29.102,48.242c4.67,7.745,9.38,15.466,13.991,23.246
									c6.336,10.689,12.819,21.288,19.205,31.947c0.063,0.104,0.13,0.207,0.192,0.313c0.595,1.006,0.6,1.016-0.367,1.588
									c-2.348,1.393-4.699,2.778-7.053,4.16c-3.549,2.08-7.109,4.14-10.651,6.229c-6.455,3.812-12.896,7.644-19.348,11.458
									c-18.233,10.781-36.469,21.561-54.704,32.341c-0.421,0.248-0.84,0.499-1.263,0.745c-0.717,0.417-1.35,0.406-2.116-0.059
									c-4.319-2.617-8.675-5.176-13.023-7.746c-16.481-9.741-32.964-19.482-49.448-29.221c-7.365-4.353-14.732-8.699-22.1-13.047
									c-2.736-1.613-5.475-3.223-8.22-4.822c-0.344-0.199-0.646-0.515-1.091-0.504C16.918,167.43,16.901,167.342,16.883,167.254z"
									/>
								<path fill="#FFFFFF" d="M140.172,56.726c-0.519,2.035-1.044,4.068-1.556,6.105c-0.891,3.553-1.75,7.114-2.678,10.657
									c-0.179,0.682-0.015,0.905,0.614,1.124c3.616,1.256,7.135,2.741,10.468,4.638c1.986,1.131,3.868,2.409,5.603,3.903
									c5.797,4.992,8.088,11.248,6.799,18.799c-0.302,1.769-0.727,3.505-1.361,5.188c-2.142,5.68-6.125,9.397-11.909,11.203
									c-0.497,0.154-0.997,0.302-1.566,0.474c0.249,0.402,0.605,0.504,0.899,0.67c2.245,1.266,4.352,2.718,6.192,4.533
									c4.216,4.155,5.999,9.22,5.494,15.078c-0.429,4.98-1.99,9.639-4.412,13.991c-3.554,6.386-9.039,10.104-16.177,11.456
									c-4.479,0.848-8.979,0.801-13.498,0.362c-2.961-0.288-5.898-0.706-8.821-1.247c-0.754-0.141-0.767-0.128-0.999,0.793
									c-1.458,5.804-2.911,11.607-4.365,17.412c-0.02,0.078-0.027,0.16-0.047,0.238c-0.26,1.008-0.263,1.017-1.292,0.761
									c-3.273-0.815-6.546-1.638-9.817-2.462c-0.271-0.067-0.533-0.168-0.871-0.274c0.669-2.655,1.327-5.248,1.977-7.843
									c0.869-3.473,1.733-6.945,2.595-10.419c0.243-0.979,0.238-0.984-0.716-1.232c-2.559-0.667-5.119-1.333-7.68-1.993
									c-0.829-0.215-0.843-0.211-1.049,0.607c-1.465,5.837-2.924,11.674-4.387,17.511c-0.078,0.312-0.173,0.616-0.291,1.031
									c-1.563-0.39-3.088-0.771-4.613-1.149c-2.052-0.512-4.104-1.019-6.155-1.529c-0.971-0.241-0.974-0.246-0.742-1.176
									c1.45-5.801,2.908-11.599,4.346-17.4c0.351-1.417,0.48-1.251-0.92-1.604c-7.063-1.775-14.125-3.552-21.188-5.326
									c-1.512-0.379-1.502-0.371-0.899-1.758c1.591-3.654,3.172-7.313,4.757-10.97c0.081-0.188,0.174-0.37,0.24-0.562
									c0.175-0.506,0.433-0.662,1.011-0.498c1.877,0.535,3.772,1.008,5.668,1.476c0.986,0.243,1.966,0.528,2.987,0.614
									c2.457,0.206,4.174-0.979,4.785-3.381c1.3-5.116,2.57-10.241,3.857-15.361c1.277-5.081,2.622-10.145,3.827-15.243
									c1.684-7.119,3.559-14.19,5.271-21.302c0.726-3.012-0.492-5.65-3.276-6.987c-1.51-0.725-3.147-1.08-4.762-1.484
									c-1.694-0.424-3.39-0.843-5.099-1.199c-0.595-0.124-0.733-0.36-0.592-0.909c0.283-1.102,0.536-2.211,0.801-3.317
									c0.166-0.073,0.207-0.216,0.245-0.379c0.569-2.385,1.139-4.771,1.722-7.152c0.255-1.045,0.265-1.025,1.38-0.791
									c0.428,0.09,0.832,0.335,1.295,0.236c0.055,0.056,0.102,0.147,0.166,0.162c4.677,1.049,9.316,2.253,13.952,3.468
									c2.389,0.626,4.807,1.144,7.289,1.729c0.273-1.054,0.538-2.027,0.777-3.007c1.247-5.095,2.486-10.193,3.733-15.288
									c0.282-1.153,0.294-1.155,1.457-0.859c3.27,0.833,6.54,1.668,9.807,2.511c0.828,0.213,0.839,0.232,0.635,1.059
									c-0.663,2.687-1.339,5.37-2.011,8.054c-0.77,3.079-1.552,6.155-2.302,9.239c-0.24,0.987-0.245,0.905,0.697,1.125
									c1.624,0.378,3.249,0.748,4.873,1.126c1.069,0.25,2.141,0.489,3.201,0.771c0.418,0.111,0.615-0.019,0.708-0.407
									c0.086-0.356,0.177-0.71,0.266-1.066c1.346-5.41,2.689-10.821,4.04-16.23c0.274-1.1,0.285-1.098,1.377-0.827
									c2.84,0.706,5.68,1.413,8.521,2.119c0.461,0.396,1.071,0.164,1.592,0.379c0.412,0.17,0.59,0.301,0.423,0.764
									C140.324,55.867,140.268,56.304,140.172,56.726z M117.729,148.186c2.74-0.035,5.387-0.326,7.962-1.211
									c7.455-2.563,9.38-12.106,4.581-17.482c-1.258-1.41-2.686-2.604-4.275-3.612c-2.382-1.514-4.953-2.626-7.591-3.603
									c-4.937-1.823-10.109-2.75-15.188-4.034c-0.718-0.183-0.734,0.291-0.836,0.692c-2.049,8.111-4.09,16.227-6.127,24.342
									c-0.227,0.9-0.214,0.93,0.69,1.162c2.598,0.668,5.188,1.367,7.803,1.965C109.033,147.383,113.359,148.111,117.729,148.186z
									 M123.731,109.397c1.333,0.058,3.513-0.15,5.628-0.841c5.151-1.684,8.109-6.85,6.995-12.176
									c-0.602-2.877-2.313-4.998-4.619-6.67c-1.649-1.196-3.454-2.137-5.334-2.938c-4.557-1.941-9.378-2.942-14.172-4.045
									c-0.567-0.13-0.88,0.023-1.027,0.656c-0.468,2.021-1,4.027-1.504,6.041c-1.323,5.29-2.64,10.581-3.969,15.869
									c-0.202,0.802-0.267,0.872,0.724,1.11c1.818,0.438,3.616,0.955,5.429,1.415C115.482,108.73,119.124,109.355,123.731,109.397
									z"/>
								<path fill="#292B2C" d="M138.454,54.319c-2.84-0.707-5.68-1.414-8.521-2.119c-1.092-0.271-1.103-0.273-1.377,0.827
									c-1.35,5.409-2.694,10.82-4.04,16.23c-0.088,0.355-0.18,0.71-0.266,1.066c-0.093,0.388-0.29,0.518-0.708,0.407
									c-1.061-0.281-2.132-0.521-3.201-0.771c-1.624-0.378-3.25-0.748-4.873-1.126c-0.941-0.22-0.937-0.138-0.697-1.125
									c0.75-3.084,1.533-6.16,2.302-9.239c0.671-2.685,1.348-5.368,2.011-8.054c0.204-0.827,0.192-0.846-0.635-1.059
									c-3.267-0.843-6.537-1.677-9.807-2.511c-1.163-0.296-1.175-0.294-1.457,0.859c-1.248,5.095-2.486,10.193-3.733,15.288
									c-0.24,0.98-0.504,1.954-0.777,3.007c-2.482-0.585-4.9-1.104-7.289-1.729c-4.636-1.215-9.275-2.419-13.952-3.468
									c-0.064-0.015-0.111-0.105-0.166-0.162c1.04-1.311,1.793-2.804,2.653-4.227c6.694-11.068,13.369-22.147,20.039-33.23
									c2.391-3.973,4.75-7.964,7.125-11.946c0.263-0.441,0.543-0.873,0.898-1.443c4.91,8.143,9.735,16.144,14.557,24.146
									c3.886,6.448,7.771,12.896,11.636,19.357C138.347,53.583,138.896,53.841,138.454,54.319z"/>
								<path fill="#292B2C" d="M117.729,148.186c-4.37-0.074-8.696-0.803-12.981-1.781c-2.614-0.598-5.205-1.297-7.803-1.965
									c-0.905-0.232-0.917-0.262-0.69-1.162c2.037-8.115,4.078-16.229,6.127-24.342c0.102-0.401,0.118-0.875,0.836-0.692
									c5.079,1.284,10.251,2.211,15.188,4.034c2.638,0.977,5.209,2.089,7.591,3.603c1.589,1.011,3.017,2.202,4.275,3.612
									c4.799,5.376,2.874,14.92-4.581,17.482C123.116,147.859,120.469,148.15,117.729,148.186z"/>
								<path fill="#292B2C" d="M123.731,109.397c-4.608-0.042-8.25-0.667-11.848-1.58c-1.813-0.46-3.611-0.977-5.429-1.415
									c-0.991-0.238-0.926-0.308-0.724-1.11c1.329-5.288,2.646-10.579,3.969-15.869c0.503-2.013,1.036-4.019,1.504-6.041
									c0.146-0.633,0.46-0.787,1.027-0.656c4.794,1.103,9.615,2.104,14.172,4.045c1.881,0.801,3.685,1.742,5.334,2.938
									c2.306,1.672,4.017,3.793,4.619,6.67c1.114,5.326-1.844,10.492-6.995,12.176
									C127.244,109.247,125.064,109.455,123.731,109.397z"/>
							</g>
						</g>
					</g>
				</g>
			</g>
		</g>
	</g>
</g>
</svg>
